<svg width="34.000000" height="34.000000" viewBox="0 0 34 34" fill="none" xmlns="http://www.w3.org/2000/svg" xmlns:xlink="http://www.w3.org/1999/xlink">
	<desc>
			Created with Pixso.
	</desc>
	<defs/>
	<path id="Oval" d="M17 34C26.38 34 34 26.38 34 17C34 7.61 26.38 0 17 0C7.61 0 0 7.61 0 17C0 26.38 7.61 34 17 34Z" fill="#FFFFFF" fill-opacity="0.300000" fill-rule="evenodd"/>
	<path id="Shape" d="M19.7976 7.32739C19.608 7.1189 19.3394 7 19.0576 7L14.9424 7C14.6606 7 14.392 7.1189 14.2024 7.32739L12.1488 9.58643C12.0541 9.69067 11.9197 9.75 11.7788 9.75L10.3 9.75C8.47742 9.75 7 11.2275 7 13.05L7 21.7C7 23.5225 8.47742 25 10.3 25L23.7 25C25.5226 25 27 23.5225 27 21.7L27 13.05C27 11.2275 25.5226 9.75 23.7 9.75L22.2212 9.75C22.0803 9.75 21.9459 9.69067 21.8512 9.58643L19.7976 7.32739ZM17 11.5C13.9624 11.5 11.5 13.9624 11.5 17C11.5 20.0376 13.9624 22.5 17 22.5C20.0376 22.5 22.5 20.0376 22.5 17C22.5 13.9624 20.0376 11.5 17 11.5ZM20.5 17C20.5 15.0669 18.933 13.5 17 13.5C15.067 13.5 13.5 15.0669 13.5 17C13.5 18.9331 15.067 20.5 17 20.5C18.933 20.5 20.5 18.9331 20.5 17Z" clip-rule="evenodd" fill="#FFFFFF" fill-opacity="1.000000" fill-rule="evenodd"/>
</svg>
