<svg width="30.000000" height="30.000000" viewBox="0 0 30 30" fill="none" xmlns="http://www.w3.org/2000/svg" xmlns:xlink="http://www.w3.org/1999/xlink">
	<desc>
			Created with Pixso.
	</desc>
	<defs/>
	<rect id="Rectangle" x="-0.000290" width="30.000000" height="30.000000" fill="#FAFAFA" fill-opacity="0"/>
	<path id="Shape" d="M21.2072 1.25C25.6489 1.25 29.2497 4.85083 29.2497 9.2926L29.2497 21.2074C29.2497 25.6492 25.6489 29.25 21.2072 29.25L9.29226 29.25C4.85048 29.25 1.24971 25.6492 1.24971 21.2074L1.24971 9.2926C1.24971 4.85083 4.85048 1.25 9.29226 1.25L21.2072 1.25ZM21.2072 3.03723L9.29226 3.03723C5.83755 3.03723 3.03695 5.83789 3.03695 9.2926L3.03695 21.2074C3.03695 24.6621 5.83755 27.4628 9.29226 27.4628L21.2072 27.4628C24.6619 27.4628 27.4625 24.6621 27.4625 21.2074L27.4625 9.2926C27.4625 5.83789 24.6619 3.03723 21.2072 3.03723ZM16.1352 7.97986C16.076 7.54358 15.7021 7.2074 15.2497 7.2074L15.1285 7.21558L15.0122 7.23938C14.6339 7.34338 14.3561 7.68982 14.3561 8.10107L14.3561 14.3552L8.10077 14.3563L7.97952 14.3645C7.54334 14.4237 7.20716 14.7976 7.20716 15.25L7.21532 15.3712C7.27449 15.8074 7.64837 16.1437 8.10077 16.1437L14.3561 16.1425L14.3561 22.3989L14.3643 22.5201C14.4234 22.9564 14.7973 23.2926 15.2497 23.2926L15.371 23.2844C15.8071 23.2252 16.1433 22.8513 16.1433 22.3989L16.1433 16.1437L22.3986 16.1437L22.5199 16.1355C22.9561 16.0763 23.2923 15.7024 23.2923 15.25L23.2841 15.1288C23.2249 14.6926 22.851 14.3563 22.3986 14.3563L16.1433 14.3563L16.1433 8.10107L16.1352 7.97986Z" clip-rule="evenodd" fill="#262626" fill-opacity="1.000000" fill-rule="evenodd"/>
</svg>
