<svg width="375.000000" height="44.000000" viewBox="0 0 375 44" fill="none" xmlns="http://www.w3.org/2000/svg" xmlns:xlink="http://www.w3.org/1999/xlink">
	<desc>
			Created with Pixso.
	</desc>
	<defs>
		<clipPath id="clip2_3050">
			<rect id="Time Style" width="54.000000" height="18.000000" transform="translate(21.000000 14.000000)" fill="white" fill-opacity="0"/>
		</clipPath>
		<clipPath id="clip2_3031">
			<rect id="Bars / Status Bar / iPhone X" width="375.000000" height="44.000000" fill="white" fill-opacity="0"/>
		</clipPath>
	</defs>
	<rect id="Bars / Status Bar / iPhone X" width="375.000000" height="44.000000" fill="#FFFFFF" fill-opacity="0"/>
	<g clip-path="url(#clip2_3031)">
		<rect id="⬛ Background" width="375.000000" height="44.000000" fill="#F7F7F7" fill-opacity="0"/>
		<path id="Combined Shape" d="M338.5 18L355.5 18C356.881 18 358 19.1194 358 20.5L358 26C358 27.3806 356.881 28.5 355.5 28.5L338.5 28.5C337.119 28.5 336 27.3806 336 26L336 20.5C336 19.1194 337.119 18 338.5 18ZM355 19L339 19C337.895 19 337 19.8955 337 21L337 25.5C337 26.6045 337.895 27.5 339 27.5L355 27.5C356.105 27.5 357 26.6045 357 25.5L357 21C357 19.8955 356.105 19 355 19Z" clip-rule="evenodd" fill="#ABABAB" fill-opacity="1.000000" fill-rule="evenodd"/>
		<path id="Combined Shape" d="M359 25.374C359.863 25.1519 360.5 24.3689 360.5 23.437C360.5 22.5051 359.863 21.7219 359 21.5L359 25.374L359 25.374Z" clip-rule="evenodd" fill="#ABABAB" fill-opacity="1.000000" fill-rule="evenodd"/>
		<rect id="Rectangle" x="338.000000" y="20.000000" rx="1.000000" width="18.000000" height="6.500000" fill="#060606" fill-opacity="1.000000"/>
		<path id="Wifi" d="M329.283 21.9863C327.677 20.4595 325.546 19.6079 323.33 19.6079C321.114 19.6079 318.983 20.4592 317.377 21.9863C317.256 22.1042 317.062 22.1028 316.943 21.9829L315.787 20.8162C315.727 20.7554 315.693 20.6731 315.694 20.5876C315.694 20.502 315.729 20.4202 315.79 20.3601C320.005 16.3208 326.655 16.3208 330.87 20.3601C330.931 20.4202 330.966 20.5022 330.966 20.5876C330.967 20.6733 330.933 20.7556 330.873 20.8162L329.717 21.9829C329.598 22.1025 329.404 22.104 329.283 21.9863ZM323.33 23.4036C324.548 23.4036 325.722 23.856 326.624 24.6733C326.746 24.7893 326.939 24.7866 327.058 24.6675L328.212 23.501C328.273 23.4397 328.307 23.3567 328.306 23.2705C328.305 23.1841 328.27 23.1018 328.208 23.042C325.459 20.4856 321.203 20.4856 318.455 23.042C318.393 23.1018 318.358 23.1841 318.357 23.2705C318.356 23.3567 318.39 23.4397 318.451 23.501L319.605 24.6675C319.724 24.7866 319.917 24.7893 320.039 24.6733C320.941 23.8564 322.114 23.4041 323.33 23.4036ZM325.643 25.9573C325.645 26.0439 325.611 26.1272 325.549 26.188L323.552 28.2036C323.493 28.2627 323.414 28.2961 323.33 28.2961C323.247 28.2961 323.167 28.2627 323.109 28.2036L321.111 26.188C321.049 26.1272 321.015 26.0437 321.017 25.9573C321.019 25.8708 321.056 25.7888 321.121 25.731C322.396 24.6521 324.264 24.6521 325.54 25.731C325.604 25.7888 325.642 25.8708 325.643 25.9573Z" clip-rule="evenodd" fill="#060606" fill-opacity="1.000000" fill-rule="evenodd"/>
		<path id="Mobile Signal" d="M309.667 17.6667L308.667 17.6667C308.114 17.6667 307.667 18.1145 307.667 18.6667L307.667 27.3335C307.667 27.8857 308.114 28.3335 308.667 28.3335L309.667 28.3335C310.219 28.3335 310.667 27.8857 310.667 27.3335L310.667 18.6667C310.667 18.1145 310.219 17.6667 309.667 17.6667ZM304 20L305 20C305.552 20 306 20.4478 306 21L306 27.3335C306 27.8857 305.552 28.3335 305 28.3335L304 28.3335C303.448 28.3335 303 27.8857 303 27.3335L303 21C303 20.4478 303.448 20 304 20ZM300.333 22.3335L299.333 22.3335C298.781 22.3335 298.333 22.7812 298.333 23.3335L298.333 27.3335C298.333 27.8857 298.781 28.3335 299.333 28.3335L300.333 28.3335C300.886 28.3335 301.333 27.8857 301.333 27.3335L301.333 23.3335C301.333 22.7812 300.886 22.3335 300.333 22.3335ZM295.667 24.3335L294.667 24.3335C294.114 24.3335 293.667 24.7812 293.667 25.3335L293.667 27.3335C293.667 27.8857 294.114 28.3335 294.667 28.3335L295.667 28.3335C296.219 28.3335 296.667 27.8857 296.667 27.3335L296.667 25.3335C296.667 24.7812 296.219 24.3335 295.667 24.3335Z" clip-rule="evenodd" fill="#060606" fill-opacity="1.000000" fill-rule="evenodd"/>
		<rect id="Time Style" width="54.000000" height="18.000000" transform="translate(21.000000 14.000000)" fill="#FFFFFF" fill-opacity="0"/>
		<g clip-path="url(#clip2_3050)">
			<path id="9:41" d="M36.26 20.58C36.26 18.78 37.55 17.24 39.47 17.24C41.36 17.24 42.85 18.77 42.86 22.19C42.85 25.18 42.01 28.14 39.35 28.14C37.66 28.14 36.57 26.98 36.43 25.31L36.92 25.31C37.05 26.69 37.93 27.67 39.35 27.67C41.34 27.67 42.38 25.71 42.4 22.16L42.31 22.16C41.93 23.19 40.74 23.92 39.49 23.92C37.71 23.92 36.26 22.49 36.26 20.58ZM52.61 25.56L47.55 25.56L47.55 25.18L52.53 17.39L53.07 17.39L53.07 25.09L54.47 25.09L54.47 25.56L53.07 25.56L53.07 28L52.61 28L52.61 25.56ZM58.09 17.39L58.68 17.39L58.68 28L58.18 28L58.18 17.9L58.14 17.9L55.75 19.44L55.75 18.9L58.09 17.39ZM42.2 20.45C41.9 18.69 40.86 17.7 39.47 17.7C37.9 17.7 36.74 19 36.74 20.57C36.74 22.19 37.96 23.47 39.54 23.47C41.19 23.47 42.48 22.05 42.2 20.45ZM48.18 25.05L48.18 25.09L52.61 25.09L52.61 18.22L52.53 18.22L48.18 25.05ZM45.71 19.34C45.71 19.59 45.51 19.79 45.26 19.79C45.01 19.79 44.79 19.59 44.79 19.34C44.79 19.09 45.01 18.87 45.26 18.87C45.51 18.87 45.71 19.09 45.71 19.34ZM45.71 26.05C45.71 26.3 45.51 26.5 45.26 26.5C45.01 26.5 44.79 26.3 44.79 26.05C44.79 25.8 45.01 25.58 45.26 25.58C45.51 25.58 45.71 25.8 45.71 26.05Z" fill="#171717" fill-opacity="1.000000" fill-rule="evenodd"/>
		</g>
	</g>
</svg>
