<svg width="10.000000" height="10.000000" viewBox="0 0 10 10" fill="none" xmlns="http://www.w3.org/2000/svg" xmlns:xlink="http://www.w3.org/1999/xlink">
	<desc>
			Created with Pixso.
	</desc>
	<defs/>
	<path id="Shape" d="M4.9491 0L6.18134 0.803467L7.65231 0.793701L8.25455 2.13574L9.49725 2.92285L9.27829 4.37744L9.89822 5.71167L8.92758 6.81689L8.72784 8.27441L7.31372 8.67944L6.35776 9.79736L4.9491 9.37378L3.54044 9.79736L2.5845 8.67944L1.17035 8.27441L0.970642 6.81689L0 5.71167L0.619904 4.37744L0.40094 2.92285L1.64368 2.13574L2.24591 0.793701L3.71689 0.803467L4.9491 0ZM4.28925 5.60889L6.25793 3.5188C6.40939 3.35791 6.66254 3.35034 6.82336 3.50171C6.98416 3.65332 6.99176 3.90649 6.8403 4.06714L4.58041 6.46655C4.42249 6.63428 4.15598 6.63428 3.99805 6.46655L3.05792 5.46851C2.90646 5.30762 2.91403 5.05444 3.07486 4.90308C3.23566 4.75146 3.48883 4.75903 3.64029 4.91992L4.28925 5.60889Z" clip-rule="evenodd" fill="#3897F0" fill-opacity="1.000000" fill-rule="evenodd"/>
</svg>
