<svg width="32.000000" height="32.000000" viewBox="0 0 32 32" fill="none" xmlns="http://www.w3.org/2000/svg" xmlns:xlink="http://www.w3.org/1999/xlink">
	<desc>
			Created with Pixso.
	</desc>
	<defs/>
	<path id="Oval" d="M15.75 30.5C24.44 30.5 31.5 23.44 31.5 14.75C31.5 6.05 24.44 -1 15.75 -1C7.05 -1 0 6.05 0 14.75C0 23.44 7.05 30.5 15.75 30.5Z" fill="#262626" fill-opacity="0.800000" fill-rule="evenodd"/>
	<path id="Shape" d="M24.5 15.0001C24.5 12.791 22.7091 11.0001 20.5 11.0001C19.1741 11.0001 17.5425 12.0808 15.6044 14.2421C13.694 12.0808 12.0759 11.0001 10.75 11.0001C8.54086 11.0001 6.75 12.791 6.75 15.0001C6.75 17.2093 8.54086 19.0001 10.75 19.0001C12.0759 19.0001 13.694 17.9194 15.6044 15.7581L15.8996 16.0809C17.7084 18.027 19.2419 19.0001 20.5 19.0001C22.7091 19.0001 24.5 17.2093 24.5 15.0001ZM10.75 12.0001C9.09314 12.0001 7.75 13.3433 7.75 15.0001C7.75 16.657 9.09314 18.0001 10.75 18.0001C11.695 18.0001 13.0506 17.1025 14.7197 15.2475L14.9392 15.0001L14.7197 14.7527C13.0506 12.8977 11.695 12.0001 10.75 12.0001ZM16.7107 14.5164C18.3027 12.822 19.5943 12.0001 20.5 12.0001C22.1569 12.0001 23.5 13.3433 23.5 15.0001C23.5 16.657 22.1569 18.0001 20.5 18.0001C19.5532 18.0001 18.1845 17.1018 16.4917 15.2474L16.2691 15.0001L16.4917 14.7528L16.7107 14.5164Z" clip-rule="evenodd" fill="#FFFFFF" fill-opacity="1.000000" fill-rule="evenodd"/>
</svg>
