<svg width="24.000000" height="22.000000" viewBox="0 0 24 22" fill="none" xmlns="http://www.w3.org/2000/svg" xmlns:xlink="http://www.w3.org/1999/xlink">
	<desc>
			Created with Pixso.
	</desc>
	<defs/>
	<path id="Shape" d="M14.0537 0C15.0723 0 16.0212 0.516846 16.5739 1.37231L17.3295 2.54248C17.5137 2.82764 17.8301 3 18.1696 3L19 3C21.4853 3 23.5 5.01465 23.5 7.5L23.5 17.5C23.5 19.9854 21.4853 22 19 22L4.5 22C2.01471 22 0 19.9854 0 17.5L0 7.5C0 5.01465 2.01471 3 4.5 3L5.33002 3C5.66974 3 5.98627 2.82764 6.17041 2.54199L6.92383 1.37402C7.47626 0.517334 8.42572 0 9.44489 0L14.0537 0ZM9.44489 1.5L14.0537 1.5C14.563 1.5 15.0375 1.7583 15.3138 2.18628L16.0695 3.3562C16.53 4.06934 17.3208 4.5 18.1696 4.5L19 4.5C20.6569 4.5 22 5.84326 22 7.5L22 17.5C22 19.1567 20.6569 20.5 19 20.5L4.5 20.5C2.84314 20.5 1.5 19.1567 1.5 17.5L1.5 7.5C1.5 5.84326 2.84314 4.5 4.5 4.5L5.33002 4.5C6.17932 4.5 6.97058 4.06885 7.43091 3.35498L8.18439 2.18701C8.46057 1.75879 8.9353 1.5 9.44489 1.5ZM11.75 6.5C14.9257 6.5 17.5 9.07446 17.5 12.25C17.5 15.4255 14.9257 18 11.75 18C8.57434 18 6 15.4255 6 12.25C6 9.07446 8.57434 6.5 11.75 6.5ZM7.5 12.25C7.5 9.90283 9.40277 8 11.75 8C14.0972 8 16 9.90283 16 12.25C16 14.5972 14.0972 16.5 11.75 16.5C9.40277 16.5 7.5 14.5972 7.5 12.25Z" clip-rule="evenodd" fill="#262626" fill-opacity="1.000000" fill-rule="evenodd"/>
</svg>
