<svg width="18.000000" height="18.000000" viewBox="0 0 18 18" fill="none" xmlns="http://www.w3.org/2000/svg" xmlns:xlink="http://www.w3.org/1999/xlink">
	<desc>
			Created with Pixso.
	</desc>
	<defs/>
	<path id="Shape" d="M0.14 0.3L0.21 0.21C0.48 -0.05 0.9 -0.08 1.19 0.14L1.28 0.21L8.88 7.82L16.48 0.21C16.77 -0.08 17.25 -0.08 17.54 0.21C17.83 0.51 17.83 0.98 17.54 1.28L9.94 8.88L17.54 16.48C17.81 16.74 17.83 17.16 17.61 17.45L17.54 17.54C17.27 17.81 16.86 17.83 16.56 17.61L16.48 17.54L8.88 9.94L1.28 17.54C0.98 17.83 0.51 17.83 0.21 17.54C-0.08 17.25 -0.08 16.77 0.21 16.48L7.82 8.88L0.21 1.28C-0.05 1.01 -0.08 0.59 0.14 0.3L0.21 0.21L0.14 0.3Z" fill="#FFFFFF" fill-opacity="1.000000" fill-rule="nonzero"/>
	<path id="Shape" d="M0.35 -0.12C0.25 -0.08 0.16 -0.01 0.07 0.07L0.07 0.08L0.06 0.08L-0.01 0.17L-0.01 0.17L-0.02 0.18C-0.09 0.27 -0.14 0.37 -0.17 0.47C-0.2 0.58 -0.21 0.69 -0.2 0.81C-0.19 0.93 -0.17 1.04 -0.12 1.14C-0.08 1.24 -0.01 1.33 0.07 1.42L7.53 8.88L0.07 16.34C0.02 16.39 -0.02 16.44 -0.06 16.5C-0.09 16.55 -0.11 16.6 -0.14 16.65C-0.16 16.71 -0.17 16.76 -0.19 16.82C-0.2 16.88 -0.21 16.94 -0.21 17.01C-0.21 17.07 -0.2 17.14 -0.19 17.2C-0.17 17.26 -0.16 17.31 -0.14 17.37C-0.11 17.42 -0.09 17.47 -0.06 17.52C-0.02 17.58 0.02 17.63 0.07 17.68C0.12 17.73 0.18 17.77 0.23 17.81C0.28 17.84 0.33 17.87 0.39 17.89C0.44 17.91 0.5 17.93 0.55 17.94C0.62 17.95 0.68 17.96 0.75 17.96C0.81 17.96 0.87 17.95 0.94 17.94C0.99 17.93 1.05 17.91 1.1 17.89C1.16 17.87 1.21 17.84 1.26 17.81C1.31 17.77 1.37 17.73 1.42 17.68L8.88 10.22L16.34 17.69L16.44 17.77L16.44 17.77C16.54 17.84 16.63 17.89 16.74 17.92C16.84 17.95 16.96 17.96 17.07 17.96C17.19 17.95 17.3 17.92 17.4 17.88C17.5 17.83 17.6 17.76 17.68 17.68L17.69 17.67L17.77 17.58L17.77 17.57C17.84 17.48 17.89 17.38 17.92 17.28C17.95 17.17 17.96 17.06 17.96 16.94C17.95 16.82 17.92 16.72 17.88 16.61C17.83 16.51 17.76 16.42 17.68 16.34L10.22 8.88L17.68 1.42C17.73 1.37 17.77 1.31 17.81 1.26C17.84 1.21 17.87 1.16 17.89 1.1C17.91 1.05 17.93 0.99 17.94 0.94C17.95 0.87 17.96 0.81 17.96 0.75C17.96 0.68 17.95 0.62 17.94 0.55C17.93 0.5 17.91 0.44 17.89 0.39C17.87 0.33 17.84 0.28 17.81 0.23C17.77 0.18 17.73 0.12 17.68 0.07C17.63 0.02 17.58 -0.02 17.52 -0.06C17.47 -0.09 17.42 -0.11 17.37 -0.14C17.31 -0.16 17.26 -0.17 17.2 -0.19C17.14 -0.2 17.07 -0.2 17.01 -0.2C16.94 -0.2 16.88 -0.2 16.82 -0.19C16.76 -0.17 16.71 -0.16 16.65 -0.14C16.6 -0.11 16.55 -0.09 16.5 -0.06C16.44 -0.02 16.39 0.02 16.34 0.07L8.88 7.53L1.41 0.07L1.32 -0.01L1.31 -0.02C1.22 -0.09 1.12 -0.14 1.02 -0.17C0.91 -0.2 0.8 -0.21 0.68 -0.2C0.56 -0.19 0.45 -0.17 0.35 -0.12ZM9.02 7.67L8.88 7.82L8.73 7.67L1.28 0.21L1.19 0.14C0.9 -0.08 0.48 -0.05 0.21 0.21L0.14 0.3C-0.08 0.59 -0.05 1.01 0.21 1.28L7.67 8.73L7.82 8.88L7.67 9.02L0.21 16.48C-0.08 16.77 -0.08 17.25 0.21 17.54C0.51 17.83 0.98 17.83 1.28 17.54L8.73 10.08L8.88 9.94L9.02 10.08L16.48 17.54L16.56 17.61C16.86 17.83 17.27 17.81 17.54 17.54L17.61 17.45C17.83 17.16 17.81 16.74 17.54 16.48L10.08 9.02L9.94 8.88L10.08 8.73L17.54 1.28C17.83 0.98 17.83 0.51 17.54 0.21C17.25 -0.08 16.77 -0.08 16.48 0.21L9.02 7.67L9.02 7.67Z" fill="#000000" fill-opacity="0.200000" fill-rule="evenodd"/>
</svg>
