<svg width="32.000000" height="32.000000" viewBox="0 0 32 32" fill="none" xmlns="http://www.w3.org/2000/svg" xmlns:xlink="http://www.w3.org/1999/xlink">
	<desc>
			Created with Pixso.
	</desc>
	<defs/>
	<path id="Oval" d="M15.75 30.5C24.44 30.5 31.5 23.44 31.5 14.75C31.5 6.05 24.44 -1 15.75 -1C7.05 -1 0 6.05 0 14.75C0 23.44 7.05 30.5 15.75 30.5Z" fill="#262626" fill-opacity="0.800000" fill-rule="evenodd"/>
	<path id="Shape" d="M24 11.5001C24 9.01483 21.9853 7.00012 19.5 7.00012L12.25 7.00012C9.76471 7.00012 7.75 9.01483 7.75 11.5001L7.75 18.7501C7.75 21.2354 9.76471 23.2501 12.25 23.2501L19.5 23.2501C21.9853 23.2501 24 21.2354 24 18.7501L24 11.5001ZM12.25 8.00012L15.25 8.00012L15.25 22.2501L12.25 22.2501C10.317 22.2501 8.75 20.6831 8.75 18.7501L8.75 11.5001C8.75 9.56714 10.317 8.00012 12.25 8.00012ZM16.25 8.00012L19.5 8.00012C21.433 8.00012 23 9.56714 23 11.5001L23 14.6251L16.25 14.6251L16.25 8.00012ZM23 15.6251L16.25 15.6251L16.25 22.2501L19.5 22.2501C21.433 22.2501 23 20.6831 23 18.7501L23 15.6251Z" clip-rule="evenodd" fill="#FFFFFF" fill-opacity="1.000000" fill-rule="evenodd"/>
</svg>
