<svg width="22.000000" height="22.000000" viewBox="0 0 22 22" fill="none" xmlns="http://www.w3.org/2000/svg" xmlns:xlink="http://www.w3.org/1999/xlink">
	<desc>
			Created with Pixso.
	</desc>
	<defs/>
	<path id="Shape" d="M11 -0.5C17.0751 -0.5 22 4.42493 22 10.5C22 11.769 21.5576 13.4813 20.6727 15.6367L20.5016 16.046L21.5464 20.3425C21.5948 20.5417 21.5808 20.7511 21.5063 20.9423C21.3199 21.4199 20.8067 21.6735 20.3224 21.5465L20.2112 21.5104L16.4645 20.0488C14.1475 21.0162 12.326 21.5 11 21.5C4.92487 21.5 0 16.5751 0 10.5C0 4.42493 4.92487 -0.5 11 -0.5ZM19.2714 15.1003L18.9265 15.9169L19.862 19.764L16.4454 18.4313L15.5123 18.8184C13.5446 19.6123 12.0245 20 11 20C5.7533 20 1.5 15.7467 1.5 10.5C1.5 5.2533 5.7533 1 11 1C16.2467 1 20.5 5.2533 20.5 10.5C20.5 11.5455 20.097 13.0952 19.2714 15.1003Z" clip-rule="evenodd" fill="#262626" fill-opacity="1.000000" fill-rule="evenodd"/>
</svg>
