<svg width="23.000000" height="25.000000" viewBox="0 0 23 23" fill="none" xmlns="http://www.w3.org/2000/svg" xmlns:xlink="http://www.w3.org/1999/xlink">
	<desc>
			Created with Pixso.
	</desc>
	<defs/>
	<path id="Shape" d="M22.5 21.5001L22.5 -0.999878L0 -0.999878L0 21.5001L22.5 21.5001ZM1.5 20.0001L7 20.0001L7 14.5001L1.5 14.5001L1.5 20.0001ZM14 14.5001L8.5 14.5001L8.5 20.0001L14 20.0001L14 14.5001ZM21 14.5001L15.5 14.5001L15.5 20.0001L21 20.0001L21 14.5001ZM7 7.50012L1.5 7.50012L1.5 13.0001L7 13.0001L7 7.50012ZM14 7.50012L8.5 7.50012L8.5 13.0001L14 13.0001L14 7.50012ZM21 7.50012L15.5 7.50012L15.5 13.0001L21 13.0001L21 7.50012ZM21 6.00012L21 0.500122L15.5 0.500122L15.5 6.00012L21 6.00012ZM7 0.500122L1.5 0.500122L1.5 6.00012L7 6.00012L7 0.500122ZM14 0.500122L8.5 0.500122L8.5 6.00012L14 6.00012L14 0.500122Z" clip-rule="evenodd" fill="#262626" fill-opacity="1.000000" fill-rule="evenodd"/>
</svg>
