<svg width="20.000000" height="17.000000" viewBox="0 0 20 17" fill="none" xmlns="http://www.w3.org/2000/svg" xmlns:xlink="http://www.w3.org/1999/xlink">
	<desc>
			Created with Pixso.
	</desc>
	<defs/>
	<path id="Shape" d="M19.25 -0.999878L0.25 -0.999878L0.148224 -0.993042C-0.21785 -0.943359 -0.5 -0.629517 -0.5 -0.249878C-0.5 0.164307 -0.164215 0.500122 0.25 0.500122L19.25 0.500122L19.3518 0.493286C19.7178 0.443604 20 0.129761 20 -0.249878C20 -0.664062 19.6642 -0.999878 19.25 -0.999878ZM0.25 7.00012L19.25 7.00012C19.6642 7.00012 20 7.33594 20 7.75012C20 8.12976 19.7178 8.4436 19.3518 8.49329L19.25 8.50012L0.25 8.50012C-0.164215 8.50012 -0.5 8.16431 -0.5 7.75012C-0.5 7.37048 -0.21785 7.05664 0.148224 7.00696L0.25 7.00012ZM19.25 15.0001L0.25 15.0001L0.148224 15.007C-0.21785 15.0566 -0.5 15.3705 -0.5 15.7501C-0.5 16.1643 -0.164215 16.5001 0.25 16.5001L19.25 16.5001L19.3518 16.4933C19.7178 16.4436 20 16.1298 20 15.7501C20 15.3359 19.6642 15.0001 19.25 15.0001Z" clip-rule="evenodd" fill="#262626" fill-opacity="1.000000" fill-rule="evenodd"/>
</svg>
