<svg width="30.000000" height="30.000000" viewBox="0 0 30 30" fill="none" xmlns="http://www.w3.org/2000/svg" xmlns:xlink="http://www.w3.org/1999/xlink">
	<desc>
			Created with Pixso.
	</desc>
	<defs/>
	<path id="Shape" d="M16.03 0.77L28.76 12.5C29 12.73 29.14 13.04 29.14 13.36L29.14 27.82C29.14 28.16 28.85 28.42 28.5 28.42L19.59 28.42C19.24 28.42 18.96 28.16 18.96 27.82L18.96 21.24C18.96 19.33 17.37 17.76 15.36 17.65L15.14 17.65C13.1 17.65 11.44 19.14 11.33 21.03L11.32 21.24L11.32 27.82C11.32 28.16 11.03 28.42 10.68 28.42L1.77 28.42C1.46 28.42 1.2 28.21 1.15 27.93L1.14 27.82L1.14 13.36C1.14 13.04 1.28 12.73 1.52 12.5L14.25 0.77C14.74 0.31 15.53 0.31 16.03 0.77Z" fill="#262626" fill-opacity="1.000000" fill-rule="evenodd"/>
	<rect id="Rectangle" x="-0.000271" width="30.000000" height="30.000000" fill="#FAFAFA" fill-opacity="0"/>
</svg>
