<svg width="23.000000" height="24.000000" viewBox="0 0 23 24" fill="none" xmlns="http://www.w3.org/2000/svg" xmlns:xlink="http://www.w3.org/1999/xlink">
	<desc>
			Created with Pixso.
	</desc>
	<defs/>
	<path id="Shape" d="M7.59732 -0.269531L7.66995 -0.353516C7.93622 -0.619873 8.35287 -0.644043 8.64648 -0.42627L8.73062 -0.353516L11 1.91577L13.2694 -0.353516C13.5623 -0.646484 14.0372 -0.646484 14.33 -0.353516C14.5963 -0.0874023 14.6205 0.329346 14.4027 0.623047L14.33 0.707031L12.538 2.49878L15.2365 2.49878C14.969 2.96094 14.7669 3.46558 14.6427 4L6.5 4C3.73859 4 1.5 6.23853 1.5 9L1.5 17.5C1.5 20.2615 3.73859 22.5 6.5 22.5L15.5 22.5C18.2614 22.5 20.5 20.2615 20.5 17.5L20.5006 10.7275C21.0255 10.6802 21.529 10.5591 22.0009 10.3748L22 17.5C22 21.0898 19.0898 24 15.5 24L6.5 24C2.91016 24 0 21.0898 0 17.5L0 9C0 5.41016 2.91016 2.5 6.5 2.5L9.46201 2.49976L7.66995 0.707031C7.40369 0.440918 7.37949 0.0241699 7.59732 -0.269531ZM10.7149 11.2703L5.03802 12.7751L4.94141 12.8076C4.60028 12.9495 4.40793 13.3252 4.50522 13.6921C4.61133 14.0925 5.02194 14.3311 5.42233 14.2249L10.157 12.97L10.157 14.8257L10.1631 14.9216C10.2186 15.3606 10.6497 15.6653 11.0923 15.5522L16.9593 14.0566L17.0562 14.0249C17.3987 13.8865 17.5946 13.5127 17.5008 13.1448C17.3985 12.7434 16.9901 12.501 16.5888 12.6033L11.657 13.8604L11.657 11.9954L11.6509 11.8987C11.5948 11.4573 11.159 11.1526 10.7149 11.2703Z" clip-rule="evenodd" fill="#262626" fill-opacity="1.000000" fill-rule="evenodd"/>
</svg>
