<svg width="105.000000" height="28.000000" viewBox="0 0 105 28" fill="none" xmlns="http://www.w3.org/2000/svg" xmlns:xlink="http://www.w3.org/1999/xlink">
	<desc>
			Created with Pixso.
	</desc>
	<defs/>
	<path id="Instagram Logo" d="M0.14621 6.33105C0.892426 3.33154 3.25507 0.943604 5.40424 0.0974121C6.30313 -0.256592 8.20786 0.420654 8.22128 1.06641C8.26761 3.30005 8.2572 6.79102 8.25146 8.71069C8.25046 9.05322 8.24957 9.3457 8.24921 9.57202C8.24637 11.2024 8.24921 14.0605 8.18292 15.8618C8.12796 17.356 7.82239 18.7319 6.94928 19.8777C6.2211 20.833 4.96326 21.4258 4.66864 21.1765C4.48767 21.0234 4.59509 20.7029 4.75018 20.2397C4.82095 20.0286 4.90167 19.7876 4.96945 19.5195C5.18314 18.6748 5.30206 17.8201 5.30206 15.1133C5.30206 13.1128 5.36481 3.52734 5.36481 2.45972C5.36481 2.43335 5.36484 2.40747 5.36487 2.38208C5.36545 1.83521 5.36575 1.55005 5.08432 1.77173C3.49933 3.02002 2.24005 5.86523 2.5285 8.41138C2.64932 9.47827 3.02237 10.0293 3.27905 10.4082C3.49661 10.7295 3.63055 10.9272 3.45639 11.2112C3.13382 11.7373 -0.798798 10.1304 0.14621 6.33105ZM103.956 15.1279C104.074 14.6196 104.216 14.3174 104.528 14.3174C104.93 14.3174 105.063 14.7942 104.973 15.4114C104.597 17.9761 103.483 18.9509 102.119 18.9509C101.481 18.9509 99.6483 18.6584 99.0149 16.0454C98.5476 14.1167 98.6627 10.5898 98.7139 9.51172C98.7153 9.48242 98.6736 9.33203 98.5838 9.52271C98.3405 10.04 97.6657 11.4546 97.2609 13.0203C96.6411 15.4177 96.5876 17.0862 96.6181 17.3562C96.6809 17.9102 95.9798 17.9973 95.6445 17.9973C95.1174 17.9973 94.4702 17.9561 93.9462 17.0857C93.7625 16.7812 93.5236 15.8196 93.3448 14.1924C93.1012 11.9802 93.0715 10.3337 93.0584 9.77295C93.0521 9.49585 92.8764 9.53906 92.7207 9.80078C92.4425 10.2681 91.856 11.2122 91.2274 13.6458C90.8529 15.0959 90.8919 17.0471 90.8283 18.2083C90.8041 18.6506 90.627 18.822 90.3999 18.865C90.0721 18.9275 89.1859 19.0706 88.317 18.7678C88.1207 18.6992 87.8508 18.5576 87.8045 18.4446C87.7285 18.26 87.6804 17.6743 87.6498 16.9583C86.9185 18.5847 86.0171 18.9509 85.0673 18.9509C84.1555 18.9509 82.5636 18.3564 82.2358 16.4321C82.2358 16.4321 82.0401 16.8157 81.6953 17.2593C80.1676 19.2253 77.1579 19.7273 75.601 17.4087C75.5251 17.2957 75.4557 17.1733 75.3892 17.0469C74.8378 18.1807 73.8088 18.9443 72.7332 18.9443C71.8143 18.9443 70.2645 18.3589 69.577 16.5393C68.5869 13.9189 69.6421 10.0044 69.7356 9.65771L69.739 9.64478C69.7936 9.44141 69.7088 9.38477 69.4135 9.40283C68.4902 9.45972 67.6251 9.45264 67.6251 9.45264C67.1152 10.9644 66.1194 12.9067 65.1903 14.3533C64.3377 15.6802 63.4118 16.8142 62.5899 17.7114C62.6079 18.8801 62.6309 19.9702 62.6449 20.8276C62.6799 22.9688 62.2027 25.1367 61.4736 26.144C60.6453 27.2883 59.2955 28.1062 57.7222 27.9888C56.2379 27.8779 54.2791 27.0337 54.4456 24.762C54.5764 22.9802 56.3549 21.4504 58.6962 19.4333C59.2274 18.9753 60.093 18.2292 60.093 18.2292L60.0484 17.0078C59.9941 17.083 59.9321 17.1667 59.8605 17.2593C58.3434 19.2283 55.3231 19.7273 53.7662 17.4087C53.663 17.2549 53.5684 17.0928 53.4818 16.9229C52.7427 18.4871 51.6881 18.9409 50.6667 18.9409C49.7547 18.9409 48.162 18.2915 47.9407 16.4321C47.9407 16.4321 47.8693 16.6509 47.4002 17.2593C45.8831 19.2283 42.8628 19.7273 41.3059 17.4087C40.9809 16.9246 40.7292 16.3521 40.5591 15.6938C39.9669 17.3086 38.6125 18.95 37.2617 18.95C35.2412 18.95 34.0783 17.2754 33.8051 14.3157C32.2785 17.7424 30.0857 19.071 27.3484 18.9849C26.6458 18.9629 25.5442 18.7683 25.0317 18.554C24.4364 18.3047 23.8622 18.0198 24.0199 17.481C24.1819 16.927 24.4658 16.4795 24.9621 16.1279C25.1531 15.9924 25.4718 16.0312 25.6805 16.1602C26.069 16.4006 26.2339 16.5654 26.6202 16.7788C27.9458 17.5098 28.6906 16.7576 28.8883 16.0278C29.1469 15.0732 28.7572 14.0669 27.5702 13.0081C27.0594 12.5522 26.5483 12.1257 26.0928 11.7292C25.4392 12.7649 24.5296 14.2017 23.5927 15.667C22.0898 18.0183 20.688 18.9473 19.6935 18.9473C18.3935 18.9473 17.4839 18.0759 17.6733 13.3755C17.744 11.6194 17.849 9.55176 17.8788 8.72437C17.8856 8.53735 17.7459 8.54419 17.6237 8.65845C16.9241 9.3125 15.4367 11.1538 14.2957 14.9275C13.5627 17.3513 13.5593 18.0015 13.4724 18.6023C13.3999 19.1038 12.004 18.9353 11.7492 18.886C11.4754 18.8328 11.3093 18.7039 11.1656 18.5352C11.0219 18.366 10.9058 18.0818 10.834 17.7324C10.7621 17.3835 10.7432 16.5857 10.7432 15.9016L10.8045 6.8999C10.8045 6.60742 10.972 6.46094 11.3075 6.46094C12.0116 6.46094 12.8036 6.77026 13.1002 6.92163C13.2751 7.01099 13.3517 7.14136 13.3517 7.27612L13.314 13.0298C13.314 13.0298 13.7497 11.9312 13.9715 11.3279C15.7311 6.54346 17.5934 6.46094 18.2389 6.46094C18.6701 6.46094 19.4147 6.85767 19.7636 7.05957C20.3378 7.39185 20.6804 7.75879 20.6544 8.40259C20.5759 10.3499 20.4776 12.2305 20.4776 13.4812L20.4776 13.5381C20.4775 14.9724 20.4774 16.4822 21.0119 16.4822C21.6894 16.4822 22.5858 14.9558 23.7724 13.0259C24.2 12.3308 24.7047 11.4346 25.0722 10.7688C25.0225 10.7148 24.9744 10.6614 24.9301 10.6091C24.3224 9.89282 24.157 9.20337 24.4672 8.27368C24.8675 7.07397 26.2097 5.9502 27.8374 6.30225C28.8226 6.51489 28.8053 7.47998 28.4039 8.32349C27.8374 9.51416 27.1987 10.1057 27.1987 10.1057C28.3015 10.8728 29.2872 11.5728 29.7865 11.9424C31.1418 12.9456 31.8941 14.1309 31.5258 15.7092C31.5258 15.7092 33.2409 14.4204 33.7278 12.0349C33.7269 11.9009 33.7262 11.7627 33.7262 11.6194C33.7262 10.2712 33.7656 5.90479 33.7656 5.90479C32.8809 5.87988 31.5463 5.85571 30.7805 5.82764C30.1149 5.80371 30.6345 3.85742 31.116 3.85742C31.6342 3.85742 33.4037 3.95264 33.9217 3.95264C33.9217 3.95264 33.9705 1.46313 34.0647 0.613037C34.1273 0.0529785 34.4475 -0.0808105 35.1534 0.0561523C35.6643 0.155029 36.0954 0.246826 36.5772 0.438477L36.5934 0.444824C36.7936 0.523682 37.1202 0.652832 37.0981 0.896973C37.0712 1.19824 36.9558 4.04956 36.9558 4.04956C36.9558 4.04956 38.2425 4.13916 38.7046 4.14893C39.2543 4.15991 40.6408 4.22925 40.837 4.30859C41.2698 4.48364 40.8658 5.89844 40.4464 5.91846C39.8398 5.94775 39.374 5.94849 38.9243 5.94897C38.7541 5.94922 38.5862 5.94946 38.4139 5.95117C38.1702 5.95386 36.9116 5.97412 36.9116 5.97412C36.878 6.38794 36.6794 10.6836 36.6794 13.7007C36.6794 15.9656 37.2345 17.0283 37.8174 17.0283C38.8135 17.0283 40.0312 15.2017 40.3069 13.6165C40.3022 13.0583 40.3389 12.4612 40.4222 11.8235C40.7103 9.61694 41.27 8.62012 41.9614 7.72095C43.0217 6.34204 44.4092 6.00586 45.7465 6.37915C46.2429 6.51733 46.9891 6.99438 47.4531 7.67969L47.4531 7.1853C47.4531 6.97095 47.6932 6.68335 48.0349 6.65942C48.2938 6.64136 48.631 6.67261 49.0216 6.75757C49.3949 6.83887 50.1971 7.05884 50.2036 7.49487C50.2045 7.55493 50.1988 7.70215 50.1906 7.91382C50.1794 8.2019 50.1636 8.60938 50.1533 9.07983C50.1225 10.4963 50.06 11.3484 50.06 13.3071C50.06 16.665 50.5628 17.3997 51.4465 17.3997C52.1377 17.3997 52.7491 16.3667 52.9617 15.3789C52.7646 14.3921 52.7379 13.2212 52.8825 11.8433C53.0377 10.3645 53.5854 8.82104 54.4217 7.72095C55.4742 6.33667 56.8696 6.00586 58.2068 6.37915C58.7032 6.51733 59.4494 6.99438 59.9134 7.67969C59.9134 7.67969 59.9134 7.29395 59.9116 7.2312C59.9028 6.89868 60.2426 6.61743 60.8068 6.65869C61.2538 6.69116 61.6847 6.78467 62.0491 6.91943C62.4612 7.07202 62.6594 7.19263 62.6643 7.51147C62.6652 7.57104 62.6595 7.7124 62.6514 7.91675L62.6514 7.91724C62.6401 8.20117 62.624 8.60571 62.6136 9.07983C62.5952 9.91309 62.5537 12.2246 62.5636 15.1619C62.5643 15.3682 62.5656 15.5757 62.5671 15.783C63.0017 15.2261 63.3384 14.7021 63.7785 13.9954C64.6002 12.6758 65.396 10.8511 65.7207 9.45386C65.7207 9.45386 64.7311 8.91577 64.8914 7.77539C64.9925 7.05664 65.2589 6.65698 65.6502 6.31787C66.3057 5.75024 68.3603 5.60596 68.1394 7.3833C68.0973 7.72241 68.0461 7.91455 68.0461 7.91455C68.8954 7.79614 69.8239 7.64233 70.4732 7.49902C71.3848 7.2981 72.019 7.46143 72.3166 7.78101C72.6411 8.12964 72.7705 8.49341 72.6112 9.18799C72.2378 10.8174 71.8961 11.9438 71.8451 13.5488C71.7677 15.989 72.4343 17.3997 73.3539 17.3997C73.9873 17.3997 74.5658 16.8809 74.8774 15.6147C74.6195 14.4924 74.5722 13.1655 74.7173 11.8567C74.9157 10.0669 75.42 8.82104 76.2565 7.72095C77.309 6.33667 78.7043 6.00586 80.0415 6.37915C80.538 6.51733 81.2842 6.99438 81.7481 7.67969C81.7481 7.67969 81.7462 7.36816 81.7462 7.20435C81.7462 6.89868 82.0011 6.67676 82.3613 6.65747C82.6158 6.6438 82.9417 6.67578 83.3167 6.75757C83.69 6.83887 84.4922 7.05859 84.4987 7.49463C84.4996 7.55493 84.4939 7.70215 84.4856 7.91406C84.4745 8.20215 84.4586 8.60938 84.4484 9.07959C84.4176 10.4963 84.355 11.3484 84.355 13.3071C84.355 16.665 84.772 17.3997 85.6557 17.3997C86.5383 17.3997 87.3499 15.6423 87.6002 14.3479C87.5996 14.2061 87.5995 14.0725 87.5995 13.9502C87.5995 11.1335 87.6709 7.10547 87.6709 7.05981C87.6709 6.71362 87.7817 6.47583 88.2341 6.47583C88.6009 6.47583 89.4648 6.67578 89.9033 6.79517C90.0006 6.82202 90.3237 6.96948 90.3216 7.41235C90.3168 8.58594 90.3115 11.6799 90.3115 11.6799C90.3115 11.6799 90.591 10.9041 90.9922 9.75757C91.4858 8.34668 91.9609 7.15649 92.3711 6.71411C92.8446 6.17334 94.1595 6.62793 94.5925 6.88501C95.2599 7.28101 95.388 7.76489 95.3921 8.33325C95.4133 11.2461 95.584 12.6326 95.6604 13.3955C95.6717 13.5107 95.736 13.5007 95.7422 13.4514C95.862 12.499 96.3714 10.1538 97.6733 7.2002C98.1325 6.1582 99.0532 6.47241 99.6896 6.6897L99.696 6.69189C101.176 7.19727 101.328 7.71021 101.298 8.22876C101.155 10.7522 101.137 13.2893 101.249 14.6672C101.392 16.4199 101.947 17.2952 102.566 17.2952C103.119 17.2952 103.548 16.8962 103.956 15.1279ZM46.6136 16.0483C47.0656 15.2241 47.3474 14.0894 47.4255 12.7319C47.5883 9.90771 46.9683 8.36694 45.6929 8.24976C44.4513 8.13574 43.656 9.34009 43.3384 11.0391C43.1244 12.1838 42.9492 14.3032 43.4637 15.8574C44.1774 18.0129 45.7956 17.54 46.6136 16.0483ZM81.7206 12.7651C81.6513 14.1724 81.3199 15.2725 80.9086 16.0483C80.1124 17.5503 78.4603 18.0166 77.7588 15.8574C77.3765 14.6807 77.3586 12.7148 77.6335 11.0725C77.9132 9.39917 78.6944 8.13574 79.988 8.24951C81.2639 8.3623 81.8611 9.90771 81.7206 12.7651ZM59.8858 12.7515C59.813 14.0332 59.4595 15.3208 59.0739 16.0483C58.2778 17.5503 56.6136 18.0198 55.924 15.8574C55.4525 14.3801 55.5654 12.468 55.7987 11.2632C56.1015 9.69995 56.8353 8.24976 58.1532 8.24976C59.4346 8.24976 60.0664 9.57129 59.8858 12.7515ZM58.9627 26.4797C59.8022 25.8843 60.1937 23.8342 60.211 21.4961C60.2186 20.4785 60.2144 20.0488 60.2144 20.0488C58.1829 21.9329 56.7962 23.4749 56.503 24.9846C56.1716 26.6909 57.772 27.3242 58.9627 26.4797Z" clip-rule="evenodd" fill="#262626" fill-opacity="1.000000" fill-rule="evenodd"/>
</svg>
