<svg width="182.000000" height="49.000000" viewBox="0 0 182 49" fill="none" xmlns="http://www.w3.org/2000/svg" xmlns:xlink="http://www.w3.org/1999/xlink">
	<desc>
			Created with Pixso.
	</desc>
	<defs/>
	<path id="Instagram Logo" d="M0.247925 10.7339C1.51318 5.64844 5.51929 1.6001 9.16345 0.165039C10.6876 -0.435059 13.9172 0.713379 13.9399 1.80786C14.0186 5.59473 14.0009 11.5137 13.9912 14.7683C13.9895 15.3491 13.9879 15.845 13.9873 16.2288C13.9825 18.9927 13.9873 23.8386 13.875 26.8926C13.7817 29.426 13.2637 31.7588 11.7832 33.7012C10.5485 35.3208 8.41565 36.3259 7.91614 35.9033C7.60925 35.644 7.79138 35.1003 8.05444 34.3152C8.17444 33.957 8.31128 33.5486 8.42615 33.094C8.78845 31.6619 8.99023 30.2126 8.99023 25.6233C8.99023 22.2317 9.09656 5.98047 9.09656 4.17017C9.09656 4.12549 9.09656 4.08154 9.09668 4.03857C9.09766 3.11133 9.09814 2.62793 8.62097 3.00391C5.93347 5.12036 3.79822 9.94409 4.28735 14.261C4.49219 16.0701 5.12476 17.0039 5.55994 17.6462C5.92883 18.1909 6.15588 18.5264 5.8606 19.0078C5.31372 19.8999 -1.35449 17.1755 0.247925 10.7339ZM180.184 26.469C180.389 25.5791 180.636 25.05 181.179 25.05C181.877 25.05 182.11 25.8845 181.953 26.9648C181.3 31.4543 179.36 33.1604 176.988 33.1604C175.877 33.1604 172.688 32.6487 171.586 28.0747C170.773 24.6985 170.974 18.5251 171.063 16.6379C171.065 16.5867 170.993 16.3235 170.836 16.6575C170.413 17.563 169.239 20.0388 168.535 22.7795C167.456 26.9761 167.363 29.8967 167.416 30.3691C167.525 31.3389 166.305 31.4912 165.722 31.4912C164.805 31.4912 163.679 31.4192 162.767 29.8955C162.448 29.3628 162.032 27.6792 161.721 24.8313C161.297 20.959 161.245 18.0769 161.223 17.0955C161.211 16.6104 160.906 16.6858 160.635 17.1443C160.151 17.9622 159.13 19.6145 158.037 23.8743C157.385 26.4128 157.453 29.8281 157.342 31.8608C157.3 32.635 156.992 32.9348 156.597 33.0103C156.026 33.1194 154.485 33.3701 152.973 32.8398C152.631 32.7202 152.162 32.4722 152.081 32.2744C151.949 31.9512 151.865 30.9263 151.812 29.6724C150.54 32.5198 148.971 33.1604 147.319 33.1604C145.732 33.1604 142.962 32.1199 142.392 28.7517C142.392 28.7517 142.052 29.4229 141.452 30.1995C138.793 33.6409 133.557 34.5198 130.848 30.4609C130.716 30.2632 130.595 30.0491 130.479 29.8279C129.52 31.8125 127.73 33.1492 125.858 33.1492C124.259 33.1492 121.563 32.1243 120.367 28.939C118.644 24.3528 120.48 17.5007 120.643 16.8936L120.649 16.8711C120.744 16.5149 120.596 16.4158 120.082 16.4475C118.476 16.5469 116.97 16.5347 116.97 16.5347C116.083 19.1807 114.351 22.5808 112.734 25.1125C111.251 27.4355 109.64 29.4207 108.21 30.991C108.241 33.0366 108.281 34.9448 108.305 36.4458C108.366 40.1936 107.536 43.9883 106.267 45.7515C104.826 47.7546 102.478 49.186 99.74 48.9805C97.1575 48.7866 93.7493 47.3088 94.0391 43.3323C94.2666 40.2136 97.3611 37.5356 101.435 34.0049C102.359 33.2034 103.865 31.8972 103.865 31.8972L103.787 29.7595C103.693 29.8911 103.585 30.0378 103.461 30.1995C100.821 33.646 95.5658 34.5198 92.8569 30.4609C92.6774 30.1919 92.5128 29.908 92.3622 29.6108C91.0762 32.3489 89.2412 33.1433 87.4641 33.1433C85.8773 33.1433 83.106 32.0061 82.7209 28.7517C82.7209 28.7517 82.5967 29.1345 81.7805 30.1995C79.1409 33.646 73.8857 34.5198 71.1769 30.4609C70.6113 29.6135 70.1735 28.6116 69.8777 27.4595C68.8472 30.2859 66.4907 33.1587 64.1404 33.1587C60.6249 33.1587 58.6014 30.2275 58.126 25.0471C55.47 31.0454 51.6547 33.3706 46.8918 33.22C45.6696 33.1814 43.7528 32.8411 42.861 32.4656C41.8253 32.0295 40.8262 31.5308 41.1005 30.5874C41.3824 29.6179 41.8763 28.8347 42.7399 28.219C43.0723 27.9819 43.6267 28.0498 43.9899 28.2756C44.6658 28.6965 44.9526 28.9851 45.6249 29.3584C47.9313 30.6379 49.2272 29.3215 49.5713 28.0439C50.0211 26.373 49.343 24.6116 47.2778 22.7581C46.389 21.9602 45.4998 21.2139 44.7073 20.5198C43.5701 22.3325 41.9873 24.8474 40.3572 27.4124C37.7424 31.5281 35.3032 33.1541 33.5729 33.1541C31.311 33.1541 29.7283 31.6292 30.058 23.4016C30.1809 20.3274 30.3636 16.7083 30.4155 15.26C30.4272 14.9326 30.1843 14.9446 29.9716 15.1445C28.7544 16.2893 26.1664 19.5122 24.181 26.1179C22.9058 30.3608 22.8999 31.4985 22.7487 32.5503C22.6226 33.428 20.1938 33.1331 19.7504 33.0466C19.274 32.9536 18.985 32.7283 18.735 32.4329C18.485 32.1367 18.283 31.6392 18.1581 31.0276C18.033 30.417 18 29.0205 18 27.823L18.1067 12.0664C18.1067 11.5547 18.3982 11.2979 18.9819 11.2979C20.207 11.2979 21.585 11.8396 22.101 12.1045C22.4054 12.2607 22.5386 12.489 22.5386 12.7251L22.4731 22.7964C22.4731 22.7964 23.2311 20.873 23.6171 19.8174C26.6787 11.4424 29.9189 11.2979 31.042 11.2979C31.7924 11.2979 33.0879 11.9924 33.6949 12.3459C34.694 12.9275 35.29 13.5696 35.2448 14.6968C35.1083 18.105 34.9373 21.397 34.9373 23.5864L34.9373 23.6858C34.9371 26.1965 34.9369 28.8394 35.8668 28.8394C37.0455 28.8394 38.6053 26.1675 40.6699 22.7893C41.4138 21.5725 42.2921 20.0037 42.9314 18.8384C42.845 18.7441 42.7614 18.6506 42.6842 18.5591C41.627 17.3049 41.3391 16.0981 41.8788 14.4712C42.5753 12.3711 44.9105 10.4041 47.7428 11.02C49.4568 11.3926 49.4268 13.0815 48.7284 14.5581C47.7428 16.6423 46.6313 17.6777 46.6313 17.6777C48.5503 19.0205 50.2653 20.2456 51.134 20.8928C53.4921 22.6489 54.8011 24.7236 54.1603 27.4861C54.1603 27.4861 57.1444 25.2305 57.9916 21.0547C57.9901 20.8201 57.9888 20.5784 57.9888 20.3274C57.9888 17.9675 58.0574 10.3245 58.0574 10.3245C56.5179 10.2808 54.1959 10.2383 52.8635 10.1895C51.7054 10.1477 52.6095 6.74097 53.4471 6.74097C54.3488 6.74097 57.4276 6.90747 58.329 6.90747C58.329 6.90747 58.4138 2.5498 58.5778 1.06201C58.6865 0.081543 59.2438 -0.152832 60.472 0.0869141C61.3611 0.260254 62.1111 0.420654 62.9493 0.756104L62.9775 0.767334C63.3258 0.905518 63.8942 1.13135 63.8556 1.55884C63.8088 2.08618 63.608 7.0769 63.608 7.0769C63.608 7.0769 65.8467 7.23389 66.6509 7.25098C67.6073 7.27002 70.0197 7.3916 70.3611 7.53027C71.1141 7.83691 70.4111 10.3135 69.6814 10.3486C68.626 10.3997 67.8156 10.4009 67.0331 10.4019C66.7369 10.4023 66.4448 10.4028 66.145 10.406C65.7209 10.4106 63.5311 10.4458 63.5311 10.4458C63.4728 11.1704 63.1271 18.6892 63.1271 23.9702C63.1271 27.9348 64.093 29.7952 65.1072 29.7952C66.8403 29.7952 68.9591 26.5977 69.4388 23.8232C69.4305 22.8464 69.4945 21.8008 69.6393 20.6848C70.1405 16.8223 71.1145 15.0774 72.3174 13.5037C74.1622 11.0898 76.5765 10.5015 78.9032 11.1548C79.767 11.3967 81.0653 12.2317 81.8726 13.4312L81.8726 12.5659C81.8726 12.1907 82.2904 11.6873 82.8849 11.6455C83.3353 11.614 83.9221 11.6687 84.6017 11.8171C85.2512 11.9597 86.647 12.3445 86.6583 13.1079C86.6598 13.2129 86.6499 13.4692 86.6357 13.8379L86.6356 13.8391L86.6356 13.8401L86.6356 13.8411C86.6161 14.3452 86.5886 15.0586 86.5707 15.8821C86.5172 18.3618 86.4083 19.853 86.4083 23.2817C86.4083 29.1594 87.2832 30.4456 88.8208 30.4456C90.0234 30.4456 91.0872 28.6372 91.4572 26.908C91.1143 25.1809 91.0679 23.1313 91.3193 20.719C91.5894 18.1309 92.5424 15.429 93.9976 13.5037C95.8287 11.0806 98.2566 10.5015 100.583 11.1548C101.447 11.3967 102.745 12.2317 103.553 13.4312C103.553 13.4312 103.553 12.7561 103.55 12.6462C103.534 12.064 104.125 11.572 105.107 11.644C105.885 11.7012 106.635 11.8645 107.269 12.1008C107.986 12.3677 108.33 12.5789 108.339 13.137C108.34 13.2412 108.331 13.4893 108.317 13.8472C108.297 14.3438 108.269 15.052 108.251 15.8821C108.219 17.3408 108.146 21.3867 108.164 26.5281C108.165 26.8892 108.167 27.2524 108.17 27.6152C108.926 26.6406 109.512 25.7236 110.278 24.4863C111.707 22.1765 113.092 18.9824 113.657 16.5366C113.657 16.5366 111.935 15.595 112.214 13.5986C112.39 12.3406 112.853 11.6409 113.534 11.0476C114.675 10.054 118.25 9.80151 117.865 12.9126C117.792 13.5059 117.703 13.8423 117.703 13.8423C119.181 13.6353 120.796 13.3657 121.926 13.115C123.512 12.7634 124.615 13.0493 125.133 13.6089C125.698 14.219 125.923 14.8555 125.646 16.0713C124.996 18.9236 124.402 20.8953 124.313 23.7046C124.178 27.9758 125.338 30.4456 126.938 30.4456C128.04 30.4456 129.047 29.5374 129.589 27.3208C129.14 25.3562 129.058 23.0337 129.31 20.7429C129.656 17.6099 130.533 15.429 131.988 13.5037C133.82 11.0806 136.247 10.5012 138.574 11.1548C139.438 11.3967 140.736 12.2317 141.543 13.4312C141.543 13.4312 141.54 12.8862 141.54 12.5991C141.54 12.0645 141.984 11.6758 142.61 11.6421C143.053 11.6182 143.62 11.6741 144.273 11.8171C144.922 11.9595 146.318 12.3442 146.329 13.1074C146.331 13.2129 146.321 13.4707 146.307 13.8411C146.287 14.3452 146.26 15.0586 146.242 15.8818C146.188 18.3618 146.079 19.853 146.079 23.2817C146.079 29.1594 146.805 30.4456 148.342 30.4456C149.878 30.4456 151.29 27.3694 151.726 25.1033C151.725 24.855 151.724 24.6213 151.724 24.4072C151.724 19.4768 151.849 12.426 151.849 12.3464C151.849 11.7402 152.041 11.3242 152.829 11.3242C153.467 11.3242 154.97 11.6741 155.733 11.8833C155.902 11.9299 156.464 12.1882 156.461 12.9634C156.452 15.0176 156.443 20.4333 156.443 20.4333C156.443 20.4333 156.929 19.0754 157.627 17.0684C158.486 14.5989 159.313 12.5154 160.027 11.7412C160.85 10.7947 163.138 11.5903 163.892 12.0403C165.053 12.7334 165.276 13.5803 165.283 14.5752C165.32 19.6738 165.617 22.1011 165.75 23.4365C165.769 23.6382 165.881 23.6206 165.892 23.5342C166.101 21.8669 166.987 17.7622 169.252 12.5918C170.051 10.7681 171.653 11.3181 172.76 11.6985L172.771 11.7024C175.346 12.5867 175.61 13.4846 175.559 14.3923C175.31 18.8096 175.278 23.2502 175.474 25.6626C175.722 28.7302 176.689 30.2625 177.764 30.2625C178.727 30.2625 179.474 29.564 180.184 26.469ZM80.644 28.7544C81.3761 27.3022 81.8322 25.3027 81.9586 22.9111C82.2222 17.9346 81.2184 15.2195 79.1536 15.0132C77.1433 14.812 75.8556 16.9343 75.3414 19.928C74.9949 21.9453 74.7113 25.6794 75.5443 28.4185C76.6997 32.2166 79.3198 31.3831 80.644 28.7544ZM103.951 22.9331C103.833 25.1919 103.26 27.4609 102.635 28.7429C101.345 31.3899 98.6477 32.2173 97.5299 28.407C96.7657 25.8032 96.9487 22.4336 97.3269 20.3103C97.8175 17.5557 99.0068 15 101.143 15C103.219 15 104.244 17.3289 103.951 22.9331ZM140.967 22.9648C140.854 25.4431 140.314 27.3804 139.644 28.7466C138.346 31.3918 135.652 32.2131 134.509 28.4109C133.885 26.3381 133.856 22.8762 134.304 19.9839C134.76 17.0374 136.034 14.8118 138.143 15.0127C140.223 15.2109 141.196 17.9326 140.967 22.9648ZM101.999 46.344C103.34 45.2937 103.965 41.6772 103.993 37.5527C104.005 35.7578 103.998 35 103.998 35C100.754 38.3232 98.5389 41.0432 98.0707 43.7065C97.5414 46.7163 100.097 47.8333 101.999 46.344Z" clip-rule="evenodd" fill="#262626" fill-opacity="1.000000" fill-rule="evenodd"/>
</svg>
