<svg width="30.000000" height="30.000000" viewBox="0 0 30 30" fill="none" xmlns="http://www.w3.org/2000/svg" xmlns:xlink="http://www.w3.org/1999/xlink">
	<desc>
			Created with Pixso.
	</desc>
	<defs/>
	<rect id="Rectangle" x="-0.000267" width="30.000000" height="30.000000" fill="#FAFAFA" fill-opacity="0"/>
	<path id="Shape" d="M14.0868 5.33936L14.851 6.28723L15.7047 5.33936C18.7085 2.15161 23.366 2.29993 26.4547 5.33936L26.6723 5.56177C29.6761 8.74951 28.9401 15.1211 26.0759 18.3989L25.6992 18.8213L25.2798 19.2753C23.6636 20.9977 21.1865 23.3558 17.8483 26.3497L15.9421 28.0459C15.2843 28.6268 14.327 28.6178 13.6791 28.0243L11.3261 25.8568L9.23106 23.9009C6.74081 21.5575 4.8716 19.7235 3.62344 18.3989C0.548058 15.1353 -0.043808 8.82544 3.03157 5.56177C6.10695 2.2981 11.0114 2.07568 14.0868 5.33936ZM4.269 6.875C6.70084 4.29431 10.463 4.17322 12.8041 6.6051L14.7793 9.05493L16.9698 6.62256C19.2167 4.23877 22.7976 4.27319 25.2647 6.70117L25.4583 6.89941C27.581 9.15259 27.2199 14.3584 24.7927 17.1361L24.4281 17.5448L24.0236 17.9824C22.6838 19.4093 20.6983 21.321 18.0803 23.7019L16.7187 24.9313L14.8226 26.6184L12.4732 24.4543L10.7918 22.8868C8.42253 20.6647 6.59478 18.8872 5.31506 17.5616L4.86087 17.0857C2.32741 14.3971 2.01054 9.27173 4.269 6.875Z" clip-rule="evenodd" fill="#262626" fill-opacity="1.000000" fill-rule="evenodd"/>
</svg>
