<svg width="9.000000" height="11.000000" viewBox="0 0 9 11" fill="none" xmlns="http://www.w3.org/2000/svg" xmlns:xlink="http://www.w3.org/1999/xlink">
	<desc>
			Created with Pixso.
	</desc>
	<defs/>
	<path id="Shape" d="M4.25 -0.999878C5.76877 -0.999878 7 0.231323 7 1.75012L7.00079 3.26575C7.987 3.38904 8.75 4.23047 8.75 5.25012L8.75 8.75012C8.75 9.85474 7.85458 10.7501 6.75 10.7501L2 10.7501C0.895416 10.7501 0 9.85474 0 8.75012L0 5.25012C0 4.31824 0.63739 3.53516 1.49997 3.31311L1.5 1.75012C1.5 0.231323 2.73123 -0.999878 4.25 -0.999878ZM2.70001 1.75012C2.70001 0.894043 3.39395 0.200073 4.25 0.200073C5.10605 0.200073 5.79999 0.894043 5.79999 1.75012L5.79999 3.25012L2.69901 3.25012L2.70001 1.75012Z" clip-rule="evenodd" fill="#262626" fill-opacity="1.000000" fill-rule="evenodd"/>
</svg>
