<svg width="24.000000" height="21.000000" viewBox="0 0 24 21" fill="none" xmlns="http://www.w3.org/2000/svg" xmlns:xlink="http://www.w3.org/1999/xlink">
	<desc>
			Created with Pixso.
	</desc>
	<defs/>
	<path id="Shape" d="M11.2175 1.39331L11.8726 2.15894L12.6042 1.39331C15.179 -1.1814 19.1711 -1.06165 21.8185 1.39331L22.005 1.57288C24.5798 4.14771 23.9489 9.29395 21.4939 11.9413L21.171 12.2826L20.8115 12.6492C19.4262 14.0404 17.3029 15.9451 14.4416 18.3632L12.8077 19.7332C12.2439 20.2024 11.4234 20.1951 10.868 19.7157L8.85114 17.9651L7.05542 16.3853C4.9209 14.4926 3.31873 13.0112 2.2489 11.9413C-0.387146 9.3053 -0.89447 4.20898 1.74158 1.57288C4.37762 -1.06311 8.58142 -1.2428 11.2175 1.39331ZM2.80225 2.63354C4.88666 0.549194 8.11139 0.451416 10.118 2.41565L11.811 4.39429L13.6887 2.42969C15.6145 0.504395 18.6838 0.532227 20.7986 2.49316L20.9645 2.65332C22.7839 4.47314 22.4744 8.67786 20.394 10.9214L20.0815 11.2515L19.7347 11.605C18.5864 12.7574 16.8845 14.3016 14.6405 16.2245L13.4734 17.2175L11.8481 18.5802L9.83441 16.8323L8.39319 15.5663C6.36237 13.7714 4.79578 12.3358 3.69885 11.265L3.30957 10.8806C1.138 8.70911 0.866394 4.56946 2.80225 2.63354Z" clip-rule="evenodd" fill="#262626" fill-opacity="1.000000" fill-rule="evenodd"/>
</svg>
