<svg width="14.000000" height="3.000000" viewBox="0 0 14 3" fill="none" xmlns="http://www.w3.org/2000/svg" xmlns:xlink="http://www.w3.org/1999/xlink">
	<desc>
			Created with Pixso.
	</desc>
	<defs/>
	<path id="Shape" d="M1.5 -0.5C2.32843 -0.5 3 0.171631 3 1C3 1.82837 2.32843 2.5 1.5 2.5C0.67157 2.5 0 1.82837 0 1C0 0.171631 0.67157 -0.5 1.5 -0.5ZM7 -0.5C7.82843 -0.5 8.5 0.171631 8.5 1C8.5 1.82837 7.82843 2.5 7 2.5C6.17157 2.5 5.5 1.82837 5.5 1C5.5 0.171631 6.17157 -0.5 7 -0.5ZM14 1C14 0.171631 13.3284 -0.5 12.5 -0.5C11.6716 -0.5 11 0.171631 11 1C11 1.82837 11.6716 2.5 12.5 2.5C13.3284 2.5 14 1.82837 14 1Z" clip-rule="evenodd" fill="#FEFEFE" fill-opacity="1.000000" fill-rule="evenodd"/>
</svg>
