<svg width="153.000000" height="32.000000" viewBox="0 0 153 32" fill="none" xmlns="http://www.w3.org/2000/svg" xmlns:xlink="http://www.w3.org/1999/xlink">
	<desc>
			Created with Pixso.
	</desc>
	<defs>
		<clipPath id="clip2_4482">
			<rect id="Select Multiple" width="153.000000" height="32.000000" transform="translate(0.000000 -0.999878)" fill="white" fill-opacity="0"/>
		</clipPath>
	</defs>
	<rect id="Select Multiple" width="153.000000" height="32.000000" transform="translate(0.000000 -0.999878)" fill="#FFFFFF" fill-opacity="0"/>
	<g clip-path="url(#clip2_4482)">
		<rect id="Rectangle" y="-0.999878" rx="16.000000" width="153.000000" height="32.000000" fill="#262626" fill-opacity="0.800000"/>
		<path id="Select multiple" d="M45.58 12.66L45.23 12.66C45.15 11.64 44.38 10.93 43.22 10.93C42.05 10.93 41.21 11.64 41.21 12.62C41.21 13.41 41.79 13.92 42.82 14.23L43.69 14.5C44.96 14.88 45.69 15.47 45.69 16.5C45.69 17.72 44.68 18.62 43.15 18.62C41.69 18.62 40.75 17.81 40.67 16.64L41.03 16.64C41.1 17.62 41.93 18.28 43.15 18.28C44.45 18.28 45.33 17.56 45.33 16.5C45.33 15.67 44.79 15.2 43.59 14.83L42.7 14.56C41.48 14.19 40.85 13.55 40.85 12.63C40.85 11.46 41.86 10.6 43.22 10.6C44.58 10.6 45.51 11.47 45.58 12.66ZM71.12 13.15L70.75 13.15C70.55 12.11 69.61 10.95 68.11 10.95C66.55 10.95 65.21 12.25 65.21 14.61C65.21 16.98 66.55 18.26 68.11 18.26C69.61 18.26 70.55 17.11 70.75 16.07L71.12 16.07C70.91 17.24 69.9 18.6 68.11 18.6C66.18 18.6 64.85 17 64.85 14.61C64.85 12.21 66.18 10.61 68.11 10.61C69.9 10.61 70.91 11.96 71.12 13.15ZM51.75 18.5L47.41 18.5L47.41 10.72L51.65 10.72L51.65 11.05L47.76 11.05L47.76 14.43L51.41 14.43L51.41 14.78L47.76 14.78L47.76 18.15L51.75 18.15L51.75 18.5ZM57.64 18.5L53.44 18.5L53.44 10.72L53.8 10.72L53.8 18.15L57.64 18.15L57.64 18.5ZM63.57 18.5L59.23 18.5L59.23 10.72L63.48 10.72L63.48 11.05L59.59 11.05L59.59 14.43L63.24 14.43L63.24 14.78L59.59 14.78L59.59 18.15L63.57 18.15L63.57 18.5ZM74.75 11.05L72.24 11.05L72.24 10.72L77.59 10.72L77.59 11.05L75.1 11.05L75.1 18.5L74.75 18.5L74.75 11.05ZM81.62 18.5L81.62 10.72L81.99 10.72L85.08 17.97L85.11 17.97L88.21 10.72L88.56 10.72L88.56 18.5L88.22 18.5L88.22 11.65L88.18 11.65L85.26 18.5L84.93 18.5L82.01 11.65L81.98 11.65L81.98 18.5L81.62 18.5ZM95.99 15.85L95.99 10.72L96.35 10.72L96.35 15.86C96.35 17.44 95.15 18.62 93.51 18.62C91.88 18.62 90.68 17.44 90.68 15.86L90.68 10.72L91.03 10.72L91.03 15.85C91.03 17.25 92.07 18.27 93.51 18.27C94.95 18.27 95.99 17.25 95.99 15.85ZM102.65 18.5L98.45 18.5L98.45 10.72L98.81 10.72L98.81 18.15L102.65 18.15L102.65 18.5ZM105.18 11.05L102.68 11.05L102.68 10.72L108.03 10.72L108.03 11.05L105.53 11.05L105.53 18.5L105.18 18.5L105.18 11.05ZM109.59 10.72L109.95 10.72L109.95 18.5L109.59 18.5L109.59 10.72ZM112.42 18.5L112.06 18.5L112.06 10.72L114.41 10.72C115.79 10.72 116.71 11.68 116.71 13.03C116.71 14.36 115.79 15.33 114.41 15.33L112.42 15.33L112.42 18.5ZM122.57 18.5L118.37 18.5L118.37 10.72L118.72 10.72L118.72 18.15L122.57 18.15L122.57 18.5ZM128.5 18.5L124.16 18.5L124.16 10.72L128.4 10.72L128.4 11.05L124.52 11.05L124.52 14.43L128.17 14.43L128.17 14.78L124.52 14.78L124.52 18.15L128.5 18.15L128.5 18.5ZM112.42 11.05L112.42 14.98L114.4 14.98C115.58 14.98 116.35 14.17 116.35 13.03C116.35 11.88 115.58 11.05 114.4 11.05L112.42 11.05Z" fill="#FFFFFF" fill-opacity="1.000000" fill-rule="evenodd"/>
		<path id="Shape" d="M23 6.75012C24.6569 6.75012 26 8.09326 26 9.75012L26 18.0001C26 19.657 24.6569 21.0001 23 21.0001L14.75 21.0001C13.0931 21.0001 11.75 19.657 11.75 18.0001L11.75 9.75012C11.75 8.09326 13.0931 6.75012 14.75 6.75012L23 6.75012ZM14.75 7.75012L23 7.75012C24.1046 7.75012 25 8.64557 25 9.75012L25 18.0001C25 19.1047 24.1046 20.0001 23 20.0001L14.75 20.0001C13.6454 20.0001 12.75 19.1047 12.75 18.0001L12.75 9.75012C12.75 8.64557 13.6454 7.75012 14.75 7.75012ZM28 11.7501C28 10.8621 27.6141 10.0641 27.0009 9.51483L27 20.0001C27 21.1047 26.1046 22.0001 25 22.0001L14.5138 22C15.0631 22.6138 15.8615 23.0001 16.75 23.0001L25 23.0001C26.6569 23.0001 28 21.657 28 20.0001L28 11.7501Z" clip-rule="evenodd" fill="#FFFFFF" fill-opacity="1.000000" fill-rule="evenodd"/>
	</g>
</svg>
