<svg width="26.000000" height="6.000000" viewBox="0 0 26 6" fill="none" xmlns="http://www.w3.org/2000/svg" xmlns:xlink="http://www.w3.org/1999/xlink">
	<desc>
			Created with Pixso.
	</desc>
	<defs/>
	<path id="Oval" d="M2.5 6C4.15 6 5.5 4.65 5.5 3C5.5 1.34 4.15 0 2.5 0C0.84 0 -0.5 1.34 -0.5 3C-0.5 4.65 0.84 6 2.5 6Z" fill="#3897F0" fill-opacity="1.000000" fill-rule="evenodd"/>
	<path id="Oval" d="M12.5 6C14.15 6 15.5 4.65 15.5 3C15.5 1.34 14.15 0 12.5 0C10.84 0 9.5 1.34 9.5 3C9.5 4.65 10.84 6 12.5 6Z" fill="#000000" fill-opacity="0.150000" fill-rule="evenodd"/>
	<path id="Oval" d="M22.5 6C24.15 6 25.5 4.65 25.5 3C25.5 1.34 24.15 0 22.5 0C20.84 0 19.5 1.34 19.5 3C19.5 4.65 20.84 6 22.5 6Z" fill="#000000" fill-opacity="0.150000" fill-rule="evenodd"/>
</svg>
