<svg width="21.000000" height="23.000000" viewBox="0 0 21 23" fill="none" xmlns="http://www.w3.org/2000/svg" xmlns:xlink="http://www.w3.org/1999/xlink">
	<desc>
			Created with Pixso.
	</desc>
	<defs/>
	<path id="Shape" d="M-0.139435 21.8308L-0.139435 0.178467C-0.139435 -0.0976562 0.0844269 -0.321533 0.360565 -0.321533L19.862 -0.321533C20.1382 -0.321533 20.362 -0.0976562 20.362 0.178467L20.362 21.8308C20.362 22.3832 19.9143 22.8308 19.362 22.8308C19.0993 22.8308 18.847 22.7274 18.6599 22.543L10.1113 14.1138L1.56268 22.543C1.16942 22.9307 0.53627 22.9263 0.148499 22.533C-0.0359955 22.3458 -0.139435 22.0936 -0.139435 21.8308ZM1.36057 20.6356L1.36057 1.17847L18.862 1.17847L18.862 20.6356L10.8134 12.6996C10.4241 12.3157 9.79855 12.3157 9.40919 12.6996L1.36057 20.6356Z" clip-rule="evenodd" fill="#262626" fill-opacity="1.000000" fill-rule="evenodd"/>
</svg>
