<svg width="31.000000" height="37.000000" viewBox="0 0 31 37" fill="none" xmlns="http://www.w3.org/2000/svg" xmlns:xlink="http://www.w3.org/1999/xlink">
	<desc>
			Created with Pixso.
	</desc>
	<defs/>
	<rect id="Icon" width="30.000000" height="30.000000" transform="translate(-0.999969 7.000000)" fill="#FFFFFF" fill-opacity="0"/>
	<rect id="Rectangle" x="0.000031" width="30.000000" height="30.000000" fill="#FAFAFA" fill-opacity="0"/>
	<path id="Shape" d="M13.1563 10.9998C18.7654 10.9998 23.3125 15.365 23.3125 20.7498C23.3125 23.1724 22.3922 25.3885 20.8688 27.0938L27.1087 33.0834C27.4138 33.3762 27.4138 33.8512 27.1087 34.144C26.8313 34.4103 26.3973 34.4346 26.0914 34.2167L26.0038 34.144L19.7647 28.1537C17.9884 29.6162 15.6798 30.4998 13.1563 30.4998C7.54713 30.4998 3.00003 26.1345 3.00003 20.7498C3.00003 15.365 7.54713 10.9998 13.1563 10.9998ZM4.56256 20.7513C4.56256 16.1949 8.41011 12.5013 13.1563 12.5013C17.9025 12.5013 21.7501 16.1949 21.7501 20.7513C21.7501 25.3076 17.9025 29.0013 13.1563 29.0013C8.41011 29.0013 4.56256 25.3076 4.56256 20.7513Z" clip-rule="evenodd" fill="#262626" fill-opacity="1.000000" fill-rule="evenodd"/>
</svg>
