<svg width="24.000000" height="24.000000" viewBox="0 0 24 24" fill="none" xmlns="http://www.w3.org/2000/svg" xmlns:xlink="http://www.w3.org/1999/xlink">
	<desc>
			Created with Pixso.
	</desc>
	<defs/>
	<path id="Shape" d="M14.4676 2.00012L12.1036 -0.363281C11.9082 -0.558228 11.5918 -0.558228 11.3962 -0.363403L9.03 2.00012L3 2.00012C1.34314 2.00012 0 3.34326 0 5.00012L0 20.0002C0 21.657 1.34314 23.0002 3 23.0002L20.5 23.0002C22.1569 23.0002 23.5 21.657 23.5 20.0002L23.5 5.00012C23.5 3.34326 22.1569 2.00012 20.5 2.00012L14.4676 2.00012ZM11.7495 1.40381L9.94366 3.20764C9.75616 3.39502 9.50195 3.50012 9.23694 3.50012L3 3.50012C2.17157 3.50012 1.5 4.17175 1.5 5.00012L1.5 20.0002C1.5 20.8286 2.17157 21.5002 3 21.5002L4 21.5002C4 18.7388 6.23859 16.5002 9 16.5002L14.5 16.5002C17.2614 16.5002 19.5 18.7388 19.5 21.5002L20.5 21.5002C21.3284 21.5002 22 20.8286 22 20.0002L22 5.00012C22 4.17175 21.3284 3.50012 20.5 3.50012L14.2605 3.50012C13.9953 3.50012 13.741 3.3949 13.5534 3.2074L11.7495 1.40381ZM11.75 5.50012C14.3734 5.50012 16.5 7.62683 16.5 10.2501C16.5 12.8735 14.3734 15.0002 11.75 15.0002C9.12665 15.0002 7 12.8735 7 10.2501C7 7.62683 9.12665 5.50012 11.75 5.50012ZM8.5 10.2501C8.5 8.4552 9.95508 7.00012 11.75 7.00012C13.5449 7.00012 15 8.4552 15 10.2501C15 12.045 13.5449 13.5001 11.75 13.5001C9.95508 13.5001 8.5 12.045 8.5 10.2501ZM14.5 18.0002C16.433 18.0002 18 19.5671 18 21.5002L5.5 21.5002C5.5 19.5671 7.06702 18.0002 9 18.0002L14.5 18.0002Z" clip-rule="evenodd" fill="#000000" fill-opacity="0.400000" fill-rule="evenodd"/>
</svg>
